<?xml version="1.0" encoding="UTF-8"?>
<!DOCTYPE svg PUBLIC "-//W3C//DTD SVG 1.1//EN" "http://www.w3.org/Graphics/SVG/1.1/DTD/svg11.dtd">
<!-- Creator: CorelDRAW X7 -->
<svg xmlns="http://www.w3.org/2000/svg" xml:space="preserve" width="125px" height="144px" version="1.1" style="shape-rendering:geometricPrecision; text-rendering:geometricPrecision; image-rendering:optimizeQuality; fill-rule:evenodd; clip-rule:evenodd"
viewBox="0 0 12500 14400"
 xmlns:xlink="http://www.w3.org/1999/xlink">
 <defs>
  <style type="text/css">
   <![CDATA[
    .fil2 {fill:#CC973B}
    .fil0 {fill:#B17E3B}
    .fil1 {fill:#373435;fill-rule:nonzero}
    .fil3 {fill:url(#id0);fill-rule:nonzero}
   ]]>
  </style>
  <linearGradient id="id0" gradientUnits="userSpaceOnUse" x1="9270.59" y1="7632.62" x2="3229.41" y2="5051.4">
   <stop offset="0" style="stop-opacity:1; stop-color:#F6CF2B"/>
   <stop offset="1" style="stop-opacity:1; stop-color:#CC973B"/>
  </linearGradient>
 </defs>
 <g id="Layer_x0020_1">
  <metadata id="CorelCorpID_0Corel-Layer"/>
  <g id="_254614456">
   <polygon class="fil0" points="6250,14388 3138,12592 25,10795 25,7200 25,3606 3138,5402 6250,7198 "/>
   <path class="fil1" d="M6237 14408l-3111 -1796 -1 -1 -3112 -1796c-7,-4 -12,-12 -12,-20l0 0 0 -3595 0 -3594c0,-13 11,-24 24,-24 5,0 9,2 13,5l3111 1795 3113 1796c7,4 11,12 11,20l1 0 0 7190c0,13 -11,24 -24,24 -5,0 -9,-2 -13,-4zm-3087 -1837l3077 1777 0 -7136 -3101 -1790 -3078 -1776 0 3554 0 3581 3100 1790 2 0z"/>
   <polygon class="fil2" points="12475,3605 12475,7200 12475,10795 9362,12592 6250,14388 6250,7198 9362,5402 12475,3605 "/>
   <path class="fil1" d="M12499 3605l0 3595 0 3595c0,9 -6,17 -14,21l-3111 1796 0 0 -3112 1797c-11,6 -26,2 -32,-9 -2,-4 -3,-8 -3,-12l0 0 0 -7190c0,-9 5,-17 13,-21l3110 -1795 1 -1 3111 -1795c10,-8 25,-5 32,6 3,4 5,8 5,13l0 0zm-47 3595l0 -3555 -3077 1776 -2 1 -3100 1790 0 7136 3077 -1777 0 0 0 0 3102 -1790 0 -3581z"/>
   <path class="fil3" d="M10084 4985l0 3854c0,1051 -431,2008 -1126,2704l-2 2 -1 2c-697,695 -1654,1126 -2705,1126l0 0c-1055,0 -2014,-431 -2708,-1126 -694,-694 -1125,-1653 -1125,-2708l0 -3853 -2392 -1380 3113 -1798 3112 -1797 3112 1797 3113 1797 -2391 1380zm-5853 1048l0 2806c0,555 228,1059 594,1425 366,367 871,594 1425,594l0 0c557,0 1061,-226 1426,-590l3 -4c364,-364 590,-868 590,-1425l0 -2806 -2019 1165 -2019 -1165z"/>
   <g>
    <path class="fil1" d="M10107 4999l0 3840c0,518 -104,1014 -293,1468 -196,471 -483,896 -839,1253l-1 1 -3 3c-357,356 -782,643 -1253,839 -453,189 -949,293 -1468,293l0 0c-520,0 -1018,-104 -1472,-293 -471,-196 -896,-483 -1252,-839l0 -1 -1 0 0 0c-356,-356 -643,-781 -839,-1252 -189,-454 -293,-951 -293,-1472l0 -3840 -2380 -1373c-11,-7 -15,-21 -9,-32 3,-4 5,-7 9,-9l3113 -1797 3113 -1797c7,-4 16,-4 23,0l0 0 3111 1797 2 1 3112 1796c11,6 15,20 9,32 -2,3 -5,6 -9,8l-2380 1374zm-47 3840l0 -3854 0 0c0,-8 5,-15 12,-20l2357 -1360 -3077 -1776 -2 -1 -3100 -1790 -3101 1790 -3078 1778 2355 1358c8,4 14,12 14,22l0 3853c0,514 103,1006 289,1454 194,466 478,886 829,1237l1 1c351,351 771,635 1237,829 449,186 940,289 1454,289l0 0c512,0 1002,-103 1450,-289 466,-194 886,-478 1238,-830l0 0 1 0 1 -1 1 -1 1 -1c351,-352 635,-773 829,-1238 186,-448 289,-938 289,-1450zm-1088 2724l-1 1 1 -1zm-4717 -5490l0 2766c0,269 54,526 151,760 102,244 251,464 436,649l1 1c184,184 403,332 647,434 234,97 491,152 760,152l0 0c270,0 528,-54 762,-151 244,-101 464,-249 647,-433l0 0 3 -3 2 -1c183,-184 330,-403 431,-646 97,-235 151,-492 151,-762l0 -2766 -1984 1145c-8,5 -17,4 -24,0l-1983 -1145zm-47 2766l0 -2806 0 0c0,-4 1,-8 3,-12 6,-11 21,-15 32,-8l2007 1158 2005 -1157c4,-3 9,-5 14,-5 13,0 24,11 24,24l0 2806c0,276 -56,539 -155,780 -103,249 -254,473 -441,660l-1 2 -4 3 0 0 0 0c-188,188 -412,339 -662,443 -240,99 -504,154 -780,154l0 0c-275,0 -538,-55 -778,-155 -249,-104 -474,-256 -662,-444l-2 -1c-188,-189 -341,-414 -445,-664 -100,-240 -155,-503 -155,-778z"/>
   </g>
  </g>
 </g>
</svg>
