<?xml version="1.0" encoding="UTF-8"?>
<!DOCTYPE svg PUBLIC "-//W3C//DTD SVG 1.1//EN" "http://www.w3.org/Graphics/SVG/1.1/DTD/svg11.dtd">
<!-- Creator: CorelDRAW X7 -->
<svg xmlns="http://www.w3.org/2000/svg" xml:space="preserve" width="42px" height="48px" version="1.1" style="shape-rendering:geometricPrecision; text-rendering:geometricPrecision; image-rendering:optimizeQuality; fill-rule:evenodd; clip-rule:evenodd"
viewBox="0 0 4200 4800"
 xmlns:xlink="http://www.w3.org/1999/xlink">
 <defs>
  <style type="text/css">
   <![CDATA[
    .fil2 {fill:#CC973B}
    .fil0 {fill:#B17E3B}
    .fil1 {fill:#373435;fill-rule:nonzero}
    .fil3 {fill:url(#id0);fill-rule:nonzero}
   ]]>
  </style>
  <linearGradient id="id0" gradientUnits="userSpaceOnUse" x1="3103.64" y1="2543.77" x2="1096.36" y2="1686.12">
   <stop offset="0" style="stop-opacity:1; stop-color:#F6CF2B"/>
   <stop offset="1" style="stop-opacity:1; stop-color:#CC973B"/>
  </linearGradient>
 </defs>
 <g id="Layer_x0020_1">
  <metadata id="CorelCorpID_0Corel-Layer"/>
  <g id="_417644368">
   <polygon class="fil0" points="2100,4788 1066,4191 32,3594 32,2400 32,1206 1066,1803 2100,2399 "/>
   <path class="fil1" d="M2096 4795l-1034 -597 0 0 -1034 -597c-3,-1 -4,-4 -4,-7l0 0 0 -1194 0 -1194c0,-5 3,-8 8,-8 1,0 3,1 4,1l1034 597 1034 597c2,1 4,4 4,6l0 0 0 2389c0,5 -4,8 -8,8 -2,0 -3,0 -4,-1zm-1026 -610l1022 590 0 -2371 -1030 -595 -1023 -590 0 1181 0 1190 1030 594 1 1z"/>
   <polygon class="fil2" points="4168,1206 4168,2400 4168,3594 3134,4191 2100,4788 2100,2399 3134,1803 4168,1206 "/>
   <path class="fil1" d="M4176 1206l0 1194 0 1194c0,4 -2,6 -4,8l-1034 596 0 0 -1034 597c-4,2 -9,1 -11,-3 0,-1 -1,-2 -1,-4l0 0 0 -2389c0,-3 2,-5 5,-7l1033 -596 0 -1 1034 -596c4,-2 8,-1 11,2 1,1 1,3 1,5l0 0zm-15 1194l0 -1181 -1023 590 0 0 -1030 595 0 2371 1022 -590 0 0 0 0 1031 -595 0 -1190z"/>
   <path class="fil3" d="M3374 1664l0 1281c0,349 -144,667 -374,898l-1 1 0 0c-232,231 -550,374 -899,374l0 0c-351,0 -669,-143 -900,-374 -230,-230 -374,-549 -374,-899l0 -1281 -794 -458 1034 -597 1034 -597 1034 597 1034 597 -794 458zm-1945 348l0 933c0,184 76,352 197,473 122,122 290,197 474,197l0 0c185,0 353,-75 474,-196l1 -1c121,-121 196,-288 196,-473l0 -933 -671 387 -671 -387z"/>
   <g>
    <path class="fil1" d="M3382 1669l0 1276c0,172 -35,337 -98,487 -65,157 -160,298 -279,417l0 0 -1 1c-118,118 -260,214 -416,279 -151,62 -316,97 -488,97l0 0c-173,0 -338,-35 -489,-97 -157,-65 -298,-161 -416,-279l0 0 0 0 0 0c-119,-119 -214,-260 -279,-416 -63,-151 -97,-316 -97,-489l0 -1276 -791 -457c-4,-2 -5,-6 -3,-10 1,-1 2,-2 3,-3l1034 -597 1034 -597c3,-2 6,-1 8,0l0 0 1034 597 0 0 1034 597c4,2 5,7 3,10 -1,2 -2,3 -3,3l-790 457zm-16 1276l0 -1281 0 0c0,-2 1,-5 4,-6l783 -452 -1022 -590 -1 -1 -1030 -594 -1030 594 -1023 591 783 451c2,1 4,4 4,7l0 1281c0,170 34,334 96,483 65,155 159,294 276,411l0 0c117,117 256,211 411,275 149,62 312,97 483,97l0 0c170,0 333,-35 482,-97 154,-64 294,-158 411,-275l0 0 0 0 1 -1 0 0 0 0c117,-117 211,-257 276,-412 62,-148 96,-311 96,-481zm-362 905l0 0 0 0zm-1567 -1824l0 919c0,89 18,174 50,252 34,81 84,154 145,216l0 0c62,61 135,111 215,144 78,33 164,51 253,51l0 0c90,0 175,-18 253,-51 81,-33 154,-82 215,-143l0 0 1 -1 1 -1c60,-61 109,-133 143,-214 32,-78 50,-164 50,-253l0 -919 -659 380c-3,2 -6,1 -8,0l-659 -380zm-16 919l0 -933 0 0c0,-1 1,-2 1,-4 3,-3 7,-5 11,-2l667 384 666 -384c2,-1 3,-2 5,-2 4,0 8,4 8,8l0 933c0,91 -19,179 -52,259 -34,82 -84,157 -146,219l-1 1 -1 1 0 0 0 0c-62,62 -137,112 -220,147 -80,33 -167,51 -259,51l0 0c-91,0 -179,-18 -259,-51 -82,-35 -157,-85 -219,-148l-1 0c-63,-63 -113,-138 -148,-221 -33,-80 -52,-167 -52,-258z"/>
   </g>
  </g>
 </g>
</svg>
