<?xml version="1.0" encoding="UTF-8"?>
<!DOCTYPE svg PUBLIC "-//W3C//DTD SVG 1.1//EN" "http://www.w3.org/Graphics/SVG/1.1/DTD/svg11.dtd">
<!-- Creator: CorelDRAW X7 -->
<svg xmlns="http://www.w3.org/2000/svg" xml:space="preserve" width="62px" height="72px" version="1.1" style="shape-rendering:geometricPrecision; text-rendering:geometricPrecision; image-rendering:optimizeQuality; fill-rule:evenodd; clip-rule:evenodd"
viewBox="0 0 6200 7200"
 xmlns:xlink="http://www.w3.org/1999/xlink">
 <defs>
  <style type="text/css">
   <![CDATA[
    .fil2 {fill:#CC973B}
    .fil0 {fill:#B17E3B}
    .fil1 {fill:#373435;fill-rule:nonzero}
    .fil3 {fill:url(#id0);fill-rule:nonzero}
   ]]>
  </style>
  <linearGradient id="id0" gradientUnits="userSpaceOnUse" x1="4605.71" y1="3815.65" x2="1594.29" y2="2528.92">
   <stop offset="0" style="stop-opacity:1; stop-color:#F6CF2B"/>
   <stop offset="1" style="stop-opacity:1; stop-color:#CC973B"/>
  </linearGradient>
 </defs>
 <g id="Layer_x0020_1">
  <metadata id="CorelCorpID_0Corel-Layer"/>
  <g id="_253918072">
   <polygon class="fil0" points="3100,7183 1549,6288 -3,5392 -3,3600 -3,1808 1549,2704 3100,3599 "/>
   <path class="fil1" d="M3093 7193l-1550 -895 -1 -1 -1551 -895c-4,-2 -6,-6 -6,-10l0 0 0 -1792 0 -1792c0,-6 5,-11 12,-11 2,0 5,0 7,2l1550 895 1552 895c4,2 6,6 6,10l0 0 0 3584c0,7 -6,12 -12,12 -2,0 -5,-1 -7,-2zm-1539 -915l1534 885 0 -3557 -1545 -892 -1535 -886 0 1772 0 1785 1546 892 0 1z"/>
   <polygon class="fil2" points="6203,1808 6203,3600 6203,5392 4651,6288 3100,7183 3100,3599 4651,2704 6203,1808 "/>
   <path class="fil1" d="M6215 1808l0 1792 0 1792c0,5 -3,9 -7,11l-1551 895 0 0 -1551 895c-6,4 -13,2 -16,-4 -1,-2 -2,-4 -2,-6l0 0 0 -3584c0,-5 3,-8 7,-10l1550 -895 1 -1 1551 -895c5,-3 12,-2 16,3 1,2 2,5 2,7l0 0zm-23 1792l0 -1772 -1534 885 -1 1 -1545 892 0 3557 1534 -885 0 0 0 0 1546 -893 0 -1785z"/>
   <path class="fil3" d="M5011 2496l0 1921c0,524 -215,1001 -561,1348l-1 1 -1 1c-347,346 -824,561 -1348,561l0 0c-526,0 -1004,-215 -1350,-561 -346,-346 -561,-824 -561,-1350l0 -1921 -1192 -688 1552 -896 1551 -895 1551 895 1552 896 -1192 688zm-2917 522l0 1399c0,276 113,528 296,711 182,182 434,295 710,295l0 0c277,0 529,-112 711,-294l1 -1c182,-182 295,-433 295,-711l0 -1399 -1007 581 -1006 -581z"/>
   <g>
    <path class="fil1" d="M5023 2503l0 1914c0,258 -52,506 -146,732 -98,234 -241,446 -419,624l0 1 -2 1c-177,178 -389,321 -624,419 -226,94 -473,146 -732,146l0 0c-259,0 -507,-52 -734,-146 -235,-98 -447,-241 -624,-419l0 0 0 0 0 0c-178,-177 -321,-389 -419,-624 -94,-227 -146,-475 -146,-734l0 -1914 -1186 -685c-6,-3 -8,-10 -4,-16 1,-1 2,-3 4,-4l1552 -896 1551 -896c4,-2 8,-2 12,0l0 0 1551 896 1 1 1551 895c6,3 8,10 4,16 -1,2 -2,3 -4,4l-1186 685zm-24 1914l0 -1921 0 0c0,-4 3,-8 6,-10l1175 -678 -1534 -885 -1 -1 -1545 -892 -1546 892 -1534 886 1174 678c4,1 7,5 7,10l0 1921c0,256 51,501 144,725 97,232 238,441 413,617l0 0c176,175 385,317 617,413 224,93 469,144 725,144l0 0c255,0 500,-51 723,-144 232,-96 441,-238 617,-413l0 0 0 -1 1 0 0 -1 1 0c175,-176 317,-385 413,-617 93,-223 144,-468 144,-723zm-542 1358l-1 0 1 0zm-2352 -2737l0 1379c0,134 27,262 76,379 51,122 125,231 217,323l1 1c91,92 201,166 322,216 117,49 245,76 379,76l0 0c135,0 263,-27 380,-75 122,-51 231,-125 322,-216l0 0 2 -2 1 0c91,-92 164,-201 215,-322 48,-117 75,-245 75,-380l0 -1379 -989 571c-4,2 -8,2 -12,0l-989 -571zm-23 1379l0 -1399 0 0c0,-2 0,-4 2,-6 3,-5 10,-7 15,-4l1001 578 1000 -577c2,-2 4,-3 7,-3 6,0 11,6 11,12l0 1399c0,138 -27,269 -77,389 -51,124 -126,236 -220,329l0 1 -2 2 0 0 0 0c-94,93 -206,169 -330,220 -120,50 -251,77 -389,77l0 0c-137,0 -268,-28 -388,-77 -124,-52 -236,-128 -330,-222l-1 0c-94,-94 -170,-207 -222,-331 -49,-120 -77,-251 -77,-388z"/>
   </g>
  </g>
 </g>
</svg>
