<?xml version="1.0" encoding="UTF-8"?>
<!DOCTYPE svg PUBLIC "-//W3C//DTD SVG 1.1//EN" "http://www.w3.org/Graphics/SVG/1.1/DTD/svg11.dtd">
<!-- Creator: CorelDRAW X7 -->
<svg xmlns="http://www.w3.org/2000/svg" xml:space="preserve" width="83px" height="96px" version="1.1" style="shape-rendering:geometricPrecision; text-rendering:geometricPrecision; image-rendering:optimizeQuality; fill-rule:evenodd; clip-rule:evenodd"
viewBox="0 0 8300 9600"
 xmlns:xlink="http://www.w3.org/1999/xlink">
 <defs>
  <style type="text/css">
   <![CDATA[
    .fil2 {fill:#CC973B}
    .fil0 {fill:#B17E3B}
    .fil1 {fill:#373435;fill-rule:nonzero}
    .fil3 {fill:url(#id0);fill-rule:nonzero}
   ]]>
  </style>
  <linearGradient id="id0" gradientUnits="userSpaceOnUse" x1="6161.57" y1="5088.17" x2="2138.43" y2="3369.04">
   <stop offset="0" style="stop-opacity:1; stop-color:#F6CF2B"/>
   <stop offset="1" style="stop-opacity:1; stop-color:#CC973B"/>
  </linearGradient>
 </defs>
 <g id="Layer_x0020_1">
  <metadata id="CorelCorpID_0Corel-Layer"/>
  <g id="_253573584">
   <polygon class="fil0" points="4150,9587 2078,8390 4,7194 4,4800 4,2406 2077,3603 4150,4799 "/>
   <path class="fil1" d="M4141 9600l-2071 -1196 -1 -1 -2072 -1196c-5,-3 -8,-8 -8,-13l0 0 0 -2394 0 -2394c0,-8 7,-15 15,-15 4,0 7,1 9,3l2072 1195 2073 1196c5,3 7,8 7,14l1 0 0 4788c0,9 -7,16 -16,16 -3,0 -6,-1 -9,-3zm-2056 -1223l2049 1183 0 -4752 -2064 -1192 -2050 -1183 0 2367 0 2385 2064 1191 1 1z"/>
   <polygon class="fil2" points="8296,2406 8296,4800 8296,7194 6222,8390 4150,9587 4150,4799 6222,3603 8295,2406 "/>
   <path class="fil1" d="M8311 2406l0 2394 0 2394c0,6 -4,12 -9,14l-2072 1196 0 0 -2072 1196c-8,5 -17,2 -21,-5 -2,-3 -2,-5 -2,-8l-1 0 0 -4788c0,-6 4,-12 9,-14l2071 -1196 1 -1 2072 -1195c7,-5 17,-3 21,4 2,3 3,6 3,9l0 0zm-31 2394l0 -2367 -2049 1182 -1 1 -2064 1192 0 4752 2049 -1183 0 0 0 0 2065 -1192 0 -2385z"/>
   <path class="fil3" d="M6703 3325l0 2566c0,700 -287,1338 -750,1801l-1 2 -1 1c-463,462 -1101,749 -1801,749l0 0c-703,0 -1341,-287 -1803,-749 -463,-462 -750,-1101 -750,-1804l0 -2566 -1593 -919 2074 -1197 2072 -1196 2072 1196 2074 1197 -1593 919zm-3897 698l0 1868c0,370 151,706 395,950 244,244 580,395 949,395l0 0c371,0 707,-151 949,-393l3 -2c242,-243 393,-579 393,-950l0 -1868 -1345 776 -1344 -776z"/>
   <g>
    <path class="fil1" d="M6718 3334l0 2557c0,346 -69,676 -195,978 -130,314 -321,597 -558,834l-1 1 -2 2c-238,237 -521,428 -835,559 -301,125 -632,195 -977,195l0 0c-347,0 -678,-70 -980,-195 -314,-131 -597,-322 -834,-559l0 0 0 0 -1 -1c-237,-236 -428,-519 -558,-833 -126,-303 -195,-634 -195,-981l0 -2557 -1585 -914c-8,-4 -10,-14 -6,-21 1,-3 3,-5 6,-6l2073 -1197 2072 -1197c5,-2 11,-2 16,1l0 -1 2072 1197 1 0 2072 1196c8,5 10,14 6,22 -1,2 -3,4 -6,5l-1585 915zm-31 2557l0 -2566 0 0c0,-5 3,-10 8,-13l1570 -906 -2049 -1183 -2 0 -2064 -1192 -2065 1192 -2050 1183 1568 905c6,3 10,8 10,14l0 2566c0,343 68,670 192,969 129,310 318,590 553,824l0 0c234,234 513,423 824,552 298,124 626,193 968,193l0 0c341,0 667,-69 966,-193 310,-129 589,-318 824,-552l0 0 1 -1 0 0 1 -1 0 -1c235,-234 424,-514 553,-824 124,-298 192,-624 192,-966zm-724 1814l-1 1 1 -1zm-3142 -3655l0 1841c0,179 36,351 101,507 68,162 167,309 290,432l1 0c122,123 269,222 431,289 156,65 327,101 506,101l0 0c180,0 351,-35 508,-100 162,-67 308,-166 430,-288l0 0 3 -2 0 -1c122,-122 221,-268 288,-430 64,-156 100,-328 100,-508l0 -1841 -1321 762c-5,3 -11,3 -16,0l-1321 -762zm-31 1841l0 -1868 0 0c0,-3 1,-6 2,-8 4,-7 14,-10 21,-6l1337 772 1335 -771c3,-2 6,-3 10,-3 8,0 15,7 15,16l0 1868c0,184 -36,360 -103,520 -68,166 -169,315 -293,440l-1 1 -3 2 0 0 0 0c-125,125 -274,226 -441,295 -160,66 -335,103 -519,103l0 0c-183,0 -358,-37 -518,-104 -166,-69 -316,-170 -441,-295l-1 -1c-126,-126 -227,-276 -297,-442 -66,-160 -103,-335 -103,-519z"/>
   </g>
  </g>
 </g>
</svg>
