<?xml version="1.0" encoding="UTF-8"?>
<!DOCTYPE svg PUBLIC "-//W3C//DTD SVG 1.1//EN" "http://www.w3.org/Graphics/SVG/1.1/DTD/svg11.dtd">
<!-- Creator: CorelDRAW X7 -->
<svg xmlns="http://www.w3.org/2000/svg" xml:space="preserve" width="222px" height="256px" version="1.1" style="shape-rendering:geometricPrecision; text-rendering:geometricPrecision; image-rendering:optimizeQuality; fill-rule:evenodd; clip-rule:evenodd"
viewBox="0 0 22200 25600"
 xmlns:xlink="http://www.w3.org/1999/xlink">
 <defs>
  <style type="text/css">
   <![CDATA[
    .fil2 {fill:#CC973B}
    .fil0 {fill:#B17E3B}
    .fil1 {fill:#373435;fill-rule:nonzero}
    .fil3 {fill:url(#id0);fill-rule:nonzero}
   ]]>
  </style>
  <linearGradient id="id0" gradientUnits="userSpaceOnUse" x1="16462.3" y1="13568.4" x2="5737.86" y2="8985.69">
   <stop offset="0" style="stop-opacity:1; stop-color:#F6CF2B"/>
   <stop offset="1" style="stop-opacity:1; stop-color:#CC973B"/>
  </linearGradient>
 </defs>
 <g id="Layer_x0020_1">
  <metadata id="CorelCorpID_0Corel-Layer"/>
  <g id="_258592064">
   <polygon class="fil0" points="11100,25561 5575,22371 49,19181 49,12800 49,6419 5575,9608 11100,12797 "/>
   <path class="fil1" d="M11076 25595l-5521 -3188 -3 -1 -5524 -3189c-13,-7 -21,-21 -21,-36l0 0 0 -6381 0 -6381c0,-23 19,-41 42,-41 9,0 17,3 24,8l5523 3186 5525 3189c13,8 20,22 20,36l1 0 0 12764c0,23 -19,42 -42,42 -9,0 -17,-3 -24,-8zm-5480 -3260l5463 3154 0 -12668 -5505 -3177 -5464 -3153 0 6309 0 6358 5503 3176 3 1z"/>
   <polygon class="fil2" points="22151,6418 22151,12800 22151,19181 16625,22371 11100,25561 11100,12797 16623,9608 22150,6419 "/>
   <path class="fil1" d="M22193 6418l0 6382 0 6381c0,17 -10,32 -25,38l-5523 3188 0 0 -5524 3190c-20,11 -45,4 -57,-15 -4,-7 -5,-14 -5,-21l-1 0 0 -12764c0,-17 10,-31 24,-38l5521 -3187 3 -2 5522 -3186c18,-13 44,-8 57,10 5,8 8,16 8,24l0 0zm-83 6382l0 -6310 -5463 3152 -3 2 -5502 3177 0 12668 5462 -3154 0 0 0 0 5506 -3177 0 -6358z"/>
   <path class="fil3" d="M17905 8869l0 6841c0,1865 -765,3565 -1997,4801l-3 3 -4 3c-1236,1233 -2935,1998 -4801,1998l0 0c-1873,0 -3575,-765 -4807,-1998 -1233,-1232 -1998,-2934 -1998,-4807l0 -6840 -4246 -2451 5526 -3191 5525 -3189 5524 3189 5527 3190 -4246 2451zm-10389 1859l0 4982c0,984 404,1880 1054,2530 650,650 1546,1054 2530,1054l0 0c988,0 1884,-402 2531,-1048l6 -6c646,-647 1047,-1542 1047,-2530l0 -4982 -3584 2069 -3584 -2069z"/>
   <g>
    <path class="fil1" d="M17947 8893l0 6817c0,920 -185,1800 -520,2605 -348,836 -858,1591 -1490,2224l-2 3 -4 4c-634,632 -1389,1143 -2225,1491 -805,334 -1685,520 -2606,520l0 0c-924,0 -1807,-186 -2613,-520 -837,-348 -1592,-858 -2223,-1491l-1 0 0 0 0 -1c-632,-631 -1142,-1385 -1490,-2222 -334,-806 -520,-1689 -520,-2613l0 -6817 -4225 -2438c-20,-11 -26,-37 -15,-56 4,-7 9,-12 15,-16l5527 -3190 5525 -3190c13,-7 29,-7 41,0l0 0 5524 3190 2 1 5525 3188c20,12 27,37 15,57 -4,6 -9,11 -15,15l-4225 2439zm-83 6817l0 -6841 0 0c0,-14 8,-28 21,-36l4184 -2415 -5463 -3152 -3 -2 -5503 -3177 -5504 3177 -5465 3155 4181 2413c14,6 25,21 25,38l0 6840c0,913 183,1785 513,2581 344,827 848,1573 1472,2197l0 0c624,624 1370,1128 2197,1472 796,330 1668,513 2581,513l0 0c910,0 1779,-183 2574,-513 826,-344 1572,-848 2198,-1472l0 0 2 -2 1 -1 1 -2 2 -2c625,-625 1128,-1371 1472,-2197 331,-795 514,-1665 514,-2574zm-1932 4835l-1 1 1 -1zm-8374 -9745l0 4910c0,477 96,933 269,1349 180,433 445,824 773,1152l2 2c327,326 716,590 1148,770 417,173 873,269 1350,269l0 0c479,0 937,-95 1353,-268 433,-179 823,-442 1148,-767l0 0 7 -6 2 -3c324,-325 586,-714 765,-1146 172,-416 268,-873 268,-1352l0 -4910 -3522 2033c-14,7 -29,7 -42,0l-3521 -2033zm-84 4910l0 -4982 1 0c0,-7 1,-14 5,-20 11,-20 37,-27 57,-15l3563 2056 3560 -2054c7,-6 15,-9 24,-9 23,0 42,19 42,42l0 4982c0,490 -98,957 -274,1384 -183,442 -451,840 -783,1173l-3 2 -6 7 0 0 0 0c-333,333 -732,602 -1175,785 -427,176 -895,274 -1385,274l0 0c-488,0 -955,-98 -1381,-276 -442,-184 -841,-453 -1176,-787l-2 -3c-335,-335 -606,-735 -791,-1178 -177,-426 -276,-893 -276,-1381z"/>
   </g>
  </g>
 </g>
</svg>
