<?xml version="1.0" encoding="UTF-8"?>
<!DOCTYPE svg PUBLIC "-//W3C//DTD SVG 1.1//EN" "http://www.w3.org/Graphics/SVG/1.1/DTD/svg11.dtd">
<!-- Creator: CorelDRAW X7 -->
<svg xmlns="http://www.w3.org/2000/svg" xml:space="preserve" width="443px" height="512px" version="1.1" style="shape-rendering:geometricPrecision; text-rendering:geometricPrecision; image-rendering:optimizeQuality; fill-rule:evenodd; clip-rule:evenodd"
viewBox="0 0 44300 51200"
 xmlns:xlink="http://www.w3.org/1999/xlink">
 <defs>
  <style type="text/css">
   <![CDATA[
    .fil2 {fill:#CC973B}
    .fil0 {fill:#B17E3B}
    .fil1 {fill:#373435;fill-rule:nonzero}
    .fil3 {fill:url(#id0);fill-rule:nonzero}
   ]]>
  </style>
  <linearGradient id="id0" gradientUnits="userSpaceOnUse" x1="32862.8" y1="27134.3" x2="11437.4" y2="17980.1">
   <stop offset="0" style="stop-opacity:1; stop-color:#F6CF2B"/>
   <stop offset="1" style="stop-opacity:1; stop-color:#CC973B"/>
  </linearGradient>
 </defs>
 <g id="Layer_x0020_1">
  <metadata id="CorelCorpID_0Corel-Layer"/>
  <g id="_253549224">
   <polygon class="fil0" points="22150,51094 11113,44721 71,38349 71,25600 71,12852 11112,19223 22150,25594 "/>
   <path class="fil1" d="M22103 51162l-11032 -6369 -5 -3 -11036 -6370c-26,-15 -41,-43 -41,-71l-1 0 0 -12750 0 -12747c0,-45 38,-83 83,-83 19,0 36,6 49,16l11033 6366 11038 6371c27,15 42,43 42,72l0 0 0 25500c0,46 -37,83 -83,83 -17,0 -34,-5 -47,-15zm-10948 -6512l10912 6300 0 -25309 -10996 -6347 -10917 -6299 0 12604 0 12702 10995 6346 6 3z"/>
   <polygon class="fil2" points="44229,12850 44229,25600 44229,38349 33187,44721 22150,51094 22150,25594 33185,19223 44226,12852 "/>
   <path class="fil1" d="M44312 12850l0 12749 0 12750c0,34 -21,63 -50,76l-11034 6368 1 0 -11037 6372c-40,23 -91,10 -114,-30 -7,-13 -11,-27 -11,-41l0 0 0 -25500c0,-33 19,-62 47,-75l11030 -6368 5 -3 11032 -6366c37,-26 89,-17 115,21 10,14 15,31 15,47l1 0zm-166 12749l0 -12605 -10914 6297 -5 3 -10994 6347 0 25309 10912 -6300 1 0 0 0 11000 -6349 0 -12702z"/>
   <path class="fil3" d="M35746 17746l0 13667c0,3727 -1529,7123 -3991,9591l-7 7 -6 6c-2469,2463 -5864,3992 -9591,3992l-1 0c-3742,0 -7142,-1529 -9604,-3992 -2463,-2461 -3991,-5862 -3991,-9604l0 -13666 -8484 -4895 11042 -6374 11038 -6372 11035 6372 11043 6372 -8483 4896zm-20756 3715l0 9952c0,1967 807,3756 2106,5055 1298,1299 3088,2105 5054,2105l1 0c1973,0 3763,-802 5055,-2093l12 -12c1291,-1292 2093,-3081 2093,-5055l0 -9953 -7161 4134 -7160 -4133z"/>
   <g>
    <path class="fil1" d="M35829 17793l0 13620c0,1838 -370,3597 -1039,5205 -695,1671 -1714,3179 -2976,4444l-4 5 -10 9c-1265,1263 -2774,2281 -4444,2977 -1608,669 -3367,1039 -5205,1039l-1 0c-1846,0 -3609,-370 -5220,-1039 -1673,-696 -3180,-1714 -4442,-2977l-1 -1 0 0 -1 -1c-1262,-1262 -2280,-2769 -2975,-4441 -669,-1610 -1039,-3374 -1039,-5220l0 -13618 -8442 -4871c-39,-23 -53,-73 -30,-113 7,-13 18,-23 30,-30l11042 -6375 11038 -6372c26,-15 57,-14 82,0l0 0 11035 6372 5 3 11038 6370c39,22 53,73 30,112 -7,13 -18,23 -30,31l-8441 4871zm-166 13620l0 -13667 1 0c0,-28 15,-56 41,-72l8359 -4824 -10914 -6297 -6 -4 -10993 -6348 -10997 6348 -10917 6303 8351 4820c30,13 50,42 50,76l0 13665c0,1824 365,3566 1026,5156 687,1653 1693,3143 2940,4389l1 1c1246,1247 2736,2254 4389,2940 1590,661 3332,1027 5156,1027l1 0c1816,0 3554,-366 5142,-1027 1650,-686 3140,-1693 4391,-2941l0 0 3 -3 2 -2 4 -3 3 -4c1247,-1250 2254,-2740 2941,-4391 660,-1588 1026,-3326 1026,-5142zm-3859 9660l-4 3 4 -3zm-16731 -19468l0 9808c0,953 192,1864 538,2696 360,865 889,1645 1544,2300l4 5c653,652 1431,1178 2295,1538 832,346 1743,538 2696,538l1 0c957,0 1870,-191 2702,-535 865,-358 1644,-883 2294,-1533l0 0 13 -13 4 -4c648,-650 1172,-1427 1529,-2290 344,-832 535,-1745 535,-2702l0 -9809 -7037 4061c-26,15 -58,14 -82,0l-7036 -4060zm-166 9808l0 -9952 0 0c0,-14 4,-28 11,-41 23,-39 74,-53 113,-31l7119 4109 7112 -4105c14,-10 31,-16 49,-16 46,0 83,38 83,83l0 9953c0,978 -195,1913 -548,2765 -365,883 -901,1679 -1564,2344l-5 5 -13 12 0 0 0 0c-665,666 -1462,1203 -2348,1569 -852,353 -1787,548 -2765,548l-1 0c-975,0 -1908,-196 -2760,-551 -883,-368 -1680,-906 -2348,-1574l-5 -4c-669,-670 -1210,-1469 -1579,-2355 -355,-851 -551,-1784 -551,-2759z"/>
   </g>
  </g>
 </g>
</svg>
