<?xml version="1.0" encoding="UTF-8"?>
<!DOCTYPE svg PUBLIC "-//W3C//DTD SVG 1.1//EN" "http://www.w3.org/Graphics/SVG/1.1/DTD/svg11.dtd">
<!-- Creator: CorelDRAW X7 -->
<svg xmlns="http://www.w3.org/2000/svg" xml:space="preserve" width="1024px" height="413px" version="1.1" style="shape-rendering:geometricPrecision; text-rendering:geometricPrecision; image-rendering:optimizeQuality; fill-rule:evenodd; clip-rule:evenodd"
viewBox="0 0 102400 41300"
 xmlns:xlink="http://www.w3.org/1999/xlink">
 <defs>
  <style type="text/css">
   <![CDATA[
    .fil2 {fill:#CC973B}
    .fil0 {fill:#B17E3B}
    .fil1 {fill:#373435;fill-rule:nonzero}
    .fil4 {fill:#CC973B;fill-rule:nonzero}
    .fil3 {fill:url(#id0);fill-rule:nonzero}
   ]]>
  </style>
  <linearGradient id="id0" gradientUnits="userSpaceOnUse" x1="26577.8" y1="21889.7" x2="9263.27" y2="14492">
   <stop offset="0" style="stop-opacity:1; stop-color:#F6CF2B"/>
   <stop offset="1" style="stop-opacity:1; stop-color:#CC973B"/>
  </linearGradient>
 </defs>
 <g id="Layer_x0020_1">
  <metadata id="CorelCorpID_0Corel-Layer"/>
  <g id="_251147432">
   <polygon class="fil0" points="17921,41252 9001,36102 78,30953 78,20649 78,10348 9000,15496 17921,20645 "/>
   <path class="fil1" d="M17882 41307l-8914 -5147 -4 -2 -8919 -5148c-21,-12 -34,-34 -34,-57l0 0 0 -10304 0 -10301c0,-37 30,-67 67,-67 15,0 29,5 40,13l8916 5144 8920 5149c21,12 33,35 33,58l1 0 0 20607c0,37 -30,67 -67,67 -15,0 -28,-4 -39,-12zm-8847 -5262l8818 5091 0 -20453 -8886 -5129 -8822 -5090 0 10185 0 10265 8885 5128 5 3z"/>
   <polygon class="fil2" points="35763,10346 35763,20649 35763,30953 26840,36102 17920,41252 17920,20645 26838,15496 35761,10348 "/>
   <path class="fil1" d="M35830 10346l0 10303 0 10304c0,27 -17,50 -40,61l-8917 5146 0 0 -8919 5150c-32,18 -73,8 -91,-24 -6,-11 -9,-22 -9,-34l-1 0 0 -20607c0,-27 16,-50 38,-61l8914 -5146 4 -2 8915 -5144c31,-21 72,-14 94,16 8,12 12,25 11,38l1 0zm-134 10303l0 -10187 -8820 5090 -4 2 -8884 5129 0 20453 8818 -5091 0 0 1 0 8889 -5131 0 -10265z"/>
   <path class="fil3" d="M28908 14303l0 11044c0,3012 -1235,5757 -3226,7751l-5 6 -5 5c-1995,1990 -4739,3226 -7751,3226l0 0c-3024,0 -5772,-1236 -7762,-3226 -1990,-1989 -3225,-4737 -3225,-7762l0 -11043 -6856 -3956 8923 -5151 8920 -5150 8918 5150 8924 5149 -6855 3957zm-16774 3002l0 8042c0,1590 653,3036 1702,4085 1049,1051 2496,1702 4085,1702l0 0c1595,0 3041,-648 4085,-1691l10 -11c1044,-1043 1692,-2489 1692,-4085l0 -8042 -5787 3340 -5787 -3340z"/>
   <g>
    <path class="fil1" d="M28975 14341l0 11006c0,1486 -299,2908 -840,4207 -561,1350 -1385,2569 -2405,3591l-3 4 -8 7c-1022,1021 -2242,1844 -3591,2406 -1300,541 -2721,840 -4207,840l0 0c-1492,0 -2917,-299 -4219,-840 -1352,-562 -2570,-1385 -3590,-2406l0 0 0 0 -2 -1c-1019,-1020 -1842,-2238 -2404,-3589 -540,-1301 -839,-2727 -839,-4219l0 -11005 -6822 -3936c-32,-18 -43,-59 -25,-91 6,-11 15,-19 25,-25l8923 -5151 8920 -5150c21,-12 47,-11 67,0l0 0 8918 5150 4 2 8919 5147c32,19 43,60 25,92 -6,10 -15,18 -25,24l-6821 3937zm-134 11006l0 -11044 0 0c0,-23 12,-46 34,-58l6755 -3899 -8820 -5089 -5 -3 -8884 -5130 -8887 5130 -8822 5094 6749 3895c24,10 40,34 40,61l0 11043c0,1474 295,2883 829,4168 555,1335 1369,2539 2376,3546l1 1c1007,1008 2211,1821 3547,2376 1285,534 2693,829 4167,829l0 0c1468,0 2872,-295 4155,-829 1334,-555 2539,-1368 3549,-2377l0 0 3 -2 1 -2 3 -3 3 -3c1008,-1010 1821,-2214 2377,-3548 533,-1283 829,-2688 829,-4156zm-3119 7807l-3 2 3 -2zm-13521 -15733l0 7926c0,771 155,1507 435,2179 291,699 718,1330 1248,1859l3 4c528,527 1157,952 1855,1243 672,280 1408,435 2179,435l0 0c774,0 1512,-155 2184,-433 699,-289 1328,-713 1854,-1239l0 0 10 -10 4 -4c523,-525 947,-1153 1235,-1850 278,-672 432,-1410 432,-2184l0 -7927 -5686 3283c-22,12 -47,11 -67,0l-5686 -3282zm-134 7926l0 -8042 0 0c0,-11 3,-23 9,-33 18,-32 59,-43 91,-25l5754 3321 5747 -3318c11,-8 25,-13 40,-13 37,0 67,31 67,68l0 8042c0,791 -158,1546 -443,2235 -295,714 -729,1357 -1265,1894l-3 4 -10 10 -1 0 0 0c-538,538 -1182,972 -1897,1268 -689,285 -1444,443 -2235,443l0 0c-788,0 -1542,-159 -2231,-446 -713,-297 -1357,-732 -1897,-1271l-4 -4c-541,-541 -979,-1187 -1277,-1903 -286,-688 -445,-1442 -445,-2230z"/>
   </g>
   <path class="fil4" d="M49395 14191l0 7107c0,1142 210,1998 630,2565 417,569 1054,852 1906,852 820,0 1447,-265 1876,-795 433,-526 649,-1297 649,-2308l0 -7421 2759 0 0 7421c0,1867 -478,3325 -1438,4370 -956,1044 -2286,1565 -3989,1565 -1720,0 -3057,-518 -4013,-1553 -953,-1035 -1431,-2491 -1431,-4364l0 -7439 3051 0z"/>
   <path class="fil4" d="M59465 23473c795,487 1471,825 2028,1023 554,195 1096,292 1626,292 533,0 963,-119 1288,-353 323,-235 485,-536 485,-904 0,-527 -576,-1124 -1730,-1782 -186,-106 -329,-192 -429,-249l-874 -494c-850,-481 -1480,-1026 -1888,-1632 -412,-606 -615,-1294 -615,-2062 0,-1041 392,-1894 1178,-2561 783,-666 1797,-998 3039,-998 460,0 956,54 1489,161 536,107 1130,274 1785,499l0 3030c-625,-390 -1215,-691 -1776,-904 -560,-213 -1035,-320 -1428,-320 -435,0 -776,95 -1026,280 -250,186 -375,442 -375,762 0,225 73,435 223,630 149,198 371,375 670,536l1516 837c1270,704 2122,1352 2561,1946 438,597 658,1300 658,2116 0,1261 -430,2281 -1288,3058 -862,776 -2001,1163 -3423,1163 -481,0 -1005,-52 -1571,-152 -564,-101 -1188,-259 -1864,-472l-259 -3450z"/>
   <polygon class="fil4" points="70114,27127 70114,14191 78080,14191 78080,16859 73110,16859 73110,19197 77367,19197 77367,21847 73110,21847 73110,24405 78153,24405 78153,27127 "/>
   <path class="fil4" d="M84012 16548l-509 0 0 3581 652 0c779,0 1373,-158 1784,-472 411,-313 615,-767 615,-1355 0,-618 -197,-1063 -596,-1340 -399,-277 -1048,-414 -1946,-414zm-3505 10579l0 -12936 3325 0c1066,0 1891,70 2479,210 587,140 1105,372 1559,701 481,344 856,770 1121,1279 264,508 395,1044 395,1607 0,816 -207,1529 -621,2141 -414,612 -1011,1090 -1790,1437l3946 5561 -3526 0 -3453 -5079 -439 0 0 5079 -2996 0z"/>
   <polygon class="fil4" points="94332,27127 94332,20988 89709,14191 93436,14191 96137,18287 99115,14191 102389,14191 97401,20863 97401,27127 "/>
  </g>
 </g>
</svg>
