<?xml version="1.0" encoding="UTF-8"?>
<!DOCTYPE svg PUBLIC "-//W3C//DTD SVG 1.1//EN" "http://www.w3.org/Graphics/SVG/1.1/DTD/svg11.dtd">
<!-- Creator: CorelDRAW X7 -->
<svg xmlns="http://www.w3.org/2000/svg" xml:space="preserve" width="512px" height="207px" version="1.1" style="shape-rendering:geometricPrecision; text-rendering:geometricPrecision; image-rendering:optimizeQuality; fill-rule:evenodd; clip-rule:evenodd"
viewBox="0 0 51200 20700"
 xmlns:xlink="http://www.w3.org/1999/xlink">
 <defs>
  <style type="text/css">
   <![CDATA[
    .fil2 {fill:#CC973B}
    .fil0 {fill:#B17E3B}
    .fil1 {fill:#373435;fill-rule:nonzero}
    .fil4 {fill:#CC973B;fill-rule:nonzero}
    .fil3 {fill:url(#id0);fill-rule:nonzero}
   ]]>
  </style>
  <linearGradient id="id0" gradientUnits="userSpaceOnUse" x1="13296.8" y1="10969.8" x2="4644.94" y2="7272.66">
   <stop offset="0" style="stop-opacity:1; stop-color:#F6CF2B"/>
   <stop offset="1" style="stop-opacity:1; stop-color:#CC973B"/>
  </linearGradient>
 </defs>
 <g id="Layer_x0020_1">
  <metadata id="CorelCorpID_0Corel-Layer"/>
  <g id="_251015264">
   <polygon class="fil0" points="8971,20645 4514,18071 55,15498 55,10350 55,5202 4514,7775 8971,10347 "/>
   <path class="fil1" d="M8952 20672l-4455 -2572 -2 -1 -4456 -2572c-11,-6 -17,-18 -17,-29l0 0 0 -5148 0 -5148c0,-18 15,-33 33,-33 8,0 15,2 20,6l4455 2571 4458 2572c10,7 16,18 16,29l1 0 0 10297c0,19 -16,34 -34,34 -7,0 -14,-2 -19,-6zm-4421 -2630l4406 2544 0 -10219 -4440 -2563 -4408 -2544 0 5090 0 5129 4439 2562 3 1z"/>
   <polygon class="fil2" points="17886,5201 17886,10350 17886,15498 13428,18071 8971,20645 8971,10347 13427,7775 17885,5202 "/>
   <path class="fil1" d="M17920 5201l0 5149 0 5148c0,14 -8,25 -20,31l-4456 2571 0 0 -4456 2573c-16,10 -37,4 -46,-12 -3,-5 -5,-11 -5,-17l0 0 0 -10297c0,-13 8,-24 19,-30l4454 -2571 2 -2 4455 -2570c15,-11 36,-7 47,8 4,6 6,13 6,19l0 0zm-67 5149l0 -5091 -4407 2543 -2 2 -4440 2563 0 10219 4407 -2544 0 0 0 0 4442 -2563 0 -5129z"/>
   <path class="fil3" d="M14461 7178l0 5519c0,1505 -617,2876 -1612,3873l-2 3 -3 2c-997,995 -2368,1612 -3873,1612l0 0c-1511,0 -2884,-617 -3878,-1612 -995,-994 -1612,-2367 -1612,-3878l0 -5518 -3426 -1977 4459 -2574 4457 -2573 4456 2573 4459 2573 -3425 1977zm-8381 1501l0 4018c0,795 325,1517 850,2041 524,525 1247,850 2041,850l0 0c797,0 1520,-323 2041,-844l5 -6c522,-521 846,-1244 846,-2041l0 -4019 -2892 1669 -2891 -1668z"/>
   <g>
    <path class="fil1" d="M14495 7198l0 5499c0,743 -150,1453 -420,2102 -281,675 -692,1284 -1202,1794l-1 2 -4 4c-511,510 -1120,922 -1795,1202 -649,270 -1359,420 -2102,420l0 0c-745,0 -1458,-150 -2108,-420 -675,-280 -1284,-692 -1794,-1202l0 0 0 0 -1 -1c-509,-509 -920,-1118 -1201,-1793 -270,-650 -420,-1362 -420,-2108l0 -5499 -3408 -1967c-16,-9 -22,-29 -13,-45 4,-6 8,-10 13,-13l4458 -2574 4458 -2573c10,-6 23,-5 33,0l0 0 4456 2573 2 1 4457 2572c16,10 21,30 12,46 -3,5 -7,9 -12,12l-3408 1968zm-68 5499l0 -5519 1 0c0,-11 6,-22 16,-29l3376 -1948 -4407 -2543 -3 -1 -4439 -2563 -4441 2563 -4408 2545 3373 1946c11,6 20,17 20,31l0 5518c0,737 147,1440 414,2082 277,668 684,1269 1187,1773l0 0c504,503 1105,910 1773,1187 642,267 1345,415 2082,415l0 0c734,0 1435,-148 2076,-415 667,-277 1269,-684 1774,-1187l0 0 1 -2 1 0 1 -2 2 -1c503,-505 910,-1107 1187,-1773 267,-642 414,-1343 414,-2077zm-1558 3901l-1 1 1 -1zm-6756 -7861l0 3960c0,385 77,753 217,1089 146,349 359,664 624,929l1 1c264,264 578,477 927,622 336,139 704,217 1089,217l0 0c387,0 755,-77 1091,-216 350,-145 664,-357 927,-619l0 0 5 -5 2 -2c261,-262 473,-576 617,-925 139,-336 216,-704 216,-1091l0 -3961 -2842 1640c-10,6 -23,6 -33,0l-2841 -1639zm-67 3960l0 -4018 0 0c0,-6 2,-12 5,-17 9,-16 29,-22 45,-12l2875 1659 2872 -1658c5,-4 12,-6 20,-6 18,0 33,15 33,33l0 4019c0,395 -79,773 -221,1117 -148,356 -364,678 -632,946l-2 2 -5 5 0 0 0 0c-269,269 -591,486 -948,634 -344,142 -722,221 -1117,221l0 0c-394,0 -771,-79 -1115,-223 -356,-148 -678,-366 -948,-635l-2 -2c-270,-270 -489,-593 -638,-951 -143,-344 -222,-720 -222,-1114z"/>
   </g>
   <path class="fil4" d="M24698 7123l0 3551c0,571 105,998 315,1281 208,285 526,426 952,426 410,0 723,-132 938,-397 216,-263 324,-648 324,-1153l0 -3708 1378 0 0 3708c0,932 -238,1661 -718,2183 -477,522 -1143,782 -1993,782 -860,0 -1528,-258 -2005,-776 -477,-517 -716,-1244 -716,-2180l0 -3717 1525 0z"/>
   <path class="fil4" d="M29730 11760c397,244 735,413 1013,512 277,97 548,146 813,146 266,0 481,-60 644,-177 161,-117 241,-268 241,-452 0,-263 -287,-561 -864,-890 -93,-53 -164,-96 -214,-125l-437 -246c-425,-241 -740,-513 -944,-816 -205,-302 -307,-646 -307,-1030 0,-520 196,-946 589,-1280 391,-333 898,-499 1519,-499 229,0 477,28 744,81 267,53 564,137 891,250l0 1514c-312,-195 -607,-346 -887,-452 -280,-107 -517,-160 -713,-160 -218,0 -388,47 -513,140 -125,93 -187,221 -187,380 0,113 36,218 111,315 74,99 185,188 335,268l757 419c635,351 1061,675 1280,972 219,298 329,650 329,1057 0,630 -215,1140 -644,1528 -431,388 -1000,581 -1710,581 -241,0 -502,-26 -786,-76 -281,-50 -593,-129 -931,-236l-129 -1724z"/>
   <polygon class="fil4" points="35051,13586 35051,7123 39031,7123 39031,8455 36548,8455 36548,9624 38675,9624 38675,10948 36548,10948 36548,12226 39068,12226 39068,13586 "/>
   <path class="fil4" d="M41995 8300l-254 0 0 1790 326 0c390,0 686,-79 892,-236 205,-157 307,-384 307,-677 0,-309 -99,-531 -298,-670 -200,-138 -524,-207 -973,-207zm-1751 5286l0 -6463 1662 0c532,0 945,35 1238,105 294,70 553,185 779,350 241,171 428,384 560,639 133,254 198,522 198,803 0,408 -103,764 -310,1070 -207,306 -505,544 -895,718l1972 2778 -1762 0 -1726 -2538 -219 0 0 2538 -1497 0z"/>
   <polygon class="fil4" points="47152,13586 47152,10519 44842,7123 46705,7123 48054,9169 49543,7123 51178,7123 48686,10456 48686,13586 "/>
  </g>
 </g>
</svg>
