<?xml version="1.0" encoding="UTF-8"?>
<!DOCTYPE svg PUBLIC "-//W3C//DTD SVG 1.1//EN" "http://www.w3.org/Graphics/SVG/1.1/DTD/svg11.dtd">
<!-- Creator: CorelDRAW X7 -->
<svg xmlns="http://www.w3.org/2000/svg" xml:space="preserve" width="256px" height="103px" version="1.1" style="shape-rendering:geometricPrecision; text-rendering:geometricPrecision; image-rendering:optimizeQuality; fill-rule:evenodd; clip-rule:evenodd"
viewBox="0 0 25600 10300"
 xmlns:xlink="http://www.w3.org/1999/xlink">
 <defs>
  <style type="text/css">
   <![CDATA[
    .fil2 {fill:#CC973B}
    .fil0 {fill:#B17E3B}
    .fil1 {fill:#373435;fill-rule:nonzero}
    .fil4 {fill:#CC973B;fill-rule:nonzero}
    .fil3 {fill:url(#id0);fill-rule:nonzero}
   ]]>
  </style>
  <linearGradient id="id0" gradientUnits="userSpaceOnUse" x1="6641.6" y1="5460.25" x2="2310.83" y2="3609.58">
   <stop offset="0" style="stop-opacity:1; stop-color:#F6CF2B"/>
   <stop offset="1" style="stop-opacity:1; stop-color:#CC973B"/>
  </linearGradient>
 </defs>
 <g id="Layer_x0020_1">
  <metadata id="CorelCorpID_0Corel-Layer"/>
  <g id="_251235392">
   <polygon class="fil0" points="4476,10303 2245,9015 13,7727 13,5150 13,2573 2245,3861 4476,5149 "/>
   <path class="fil1" d="M4467 10317l-2230 -1288 -1 0 -2231 -1288c-5,-3 -8,-8 -8,-14l0 0 0 -2577 0 -2577c0,-9 7,-16 16,-16 4,0 8,1 10,3l2230 1287 2232 1287c5,3 8,9 8,15l0 0 0 5154c0,9 -8,17 -17,17 -3,0 -7,-1 -9,-3zm-2213 -1316l2205 1273 0 -5116 -2222 -1283 -2207 -1273 0 2548 0 2567 2222 1283 2 1z"/>
   <polygon class="fil2" points="8939,2573 8939,5150 8939,7727 6707,9015 4476,10303 4476,5149 6707,3861 8938,2573 "/>
   <path class="fil1" d="M8956 2573l0 2577 0 2577c0,7 -5,13 -10,15l-2231 1287 1 0 -2231 1288c-8,5 -19,2 -23,-6 -2,-2 -2,-5 -2,-8l-1 0 0 -5154c0,-7 4,-13 10,-15l2229 -1287 1 -1 2230 -1287c8,-5 18,-3 24,4 2,3 3,6 2,10l1 0zm-34 2577l0 -2548 -2206 1273 -1 0 -2222 1283 0 5116 2206 -1273 0 0 0 0 2223 -1284 0 -2567z"/>
   <path class="fil3" d="M7224 3562l0 2763c0,753 -309,1440 -806,1939l-2 1 -1 1c-499,498 -1185,807 -1939,807l0 0c-756,0 -1443,-309 -1941,-807 -498,-497 -807,-1185 -807,-1941l0 -2762 -1715 -990 2232 -1288 2231 -1288 2231 1288 2232 1288 -1715 989zm-4195 751l0 2012c0,398 163,759 426,1022 262,262 624,425 1021,425l0 0c399,0 761,-162 1022,-423l3 -2c261,-261 423,-623 423,-1022l0 -2012 -1448 836 -1447 -836z"/>
   <g>
    <path class="fil1" d="M7241 3572l0 2753c0,372 -75,727 -210,1052 -140,338 -346,642 -601,898l-1 1 -2 2c-256,255 -561,461 -898,602 -326,135 -681,210 -1053,210l0 0c-373,0 -729,-75 -1055,-210 -338,-141 -643,-347 -898,-602l0 0 0 0 0 0c-255,-255 -461,-560 -602,-898 -135,-325 -210,-682 -210,-1055l0 -2753 -1706 -984c-8,-5 -11,-15 -6,-23 2,-3 4,-5 6,-6l2232 -1289 2231 -1288c5,-3 12,-2 17,0l0 0 2230 1288 1 1 2231 1287c8,5 11,15 6,23 -1,3 -3,5 -6,6l-1706 985zm-34 2753l0 -2763 1 0c0,-5 3,-11 8,-14l1690 -975 -2206 -1273 -2 -1 -2222 -1283 -2222 1283 -2207 1274 1688 974c6,3 10,9 10,16l0 2762c0,369 74,721 207,1042 139,334 343,635 595,887l0 0c252,252 553,456 887,595 321,133 674,207 1042,207l0 0c367,0 719,-74 1040,-207 333,-139 634,-343 887,-595l0 0 1 0 0 -1 1 0 1 -1c252,-253 455,-554 594,-888 134,-321 207,-672 207,-1039zm-780 1952l0 1 0 -1zm-3381 -3935l0 1983c0,193 38,377 108,545 73,175 180,332 312,465l1 1c132,132 290,238 464,311 168,70 353,108 545,108l0 0c194,0 378,-38 547,-108 174,-72 332,-178 463,-310l0 0 3 -2 1 -1c131,-131 236,-288 309,-463 69,-168 108,-353 108,-546l0 -1983 -1422 821c-6,3 -12,3 -17,0l-1422 -821zm-34 1983l0 -2012 0 0c0,-2 1,-5 2,-8 5,-8 15,-11 23,-6l1439 830 1438 -829c3,-2 6,-4 10,-4 9,0 16,8 16,17l0 2012c0,198 -39,387 -110,559 -74,178 -183,339 -317,473l-1 2 -2 2 0 0 0 0c-135,135 -296,243 -475,317 -172,71 -361,111 -559,111l0 0c-197,0 -385,-40 -558,-111 -178,-75 -339,-184 -474,-319l-1 0c-136,-136 -245,-297 -319,-476 -72,-173 -112,-361 -112,-558z"/>
   </g>
   <path class="fil4" d="M12349 3535l0 1777c0,286 52,500 157,641 105,143 264,214 477,214 205,0 362,-67 469,-199 108,-132 162,-324 162,-577l0 -1856 690 0 0 1856c0,467 -119,831 -359,1093 -239,261 -572,391 -998,391 -430,0 -764,-129 -1004,-388 -238,-259 -358,-623 -358,-1092l0 -1860 764 0z"/>
   <path class="fil4" d="M14867 5856c199,122 368,206 508,256 138,49 274,73 406,73 134,0 241,-30 322,-88 81,-59 121,-134 121,-227 0,-131 -143,-281 -432,-445 -47,-27 -82,-48 -108,-63l-218 -123c-213,-120 -370,-257 -472,-408 -103,-152 -154,-324 -154,-516 0,-260 98,-474 295,-640 195,-167 449,-250 760,-250 115,0 239,14 372,40 134,27 283,69 446,125l0 758c-156,-98 -303,-173 -444,-226 -140,-54 -259,-80 -357,-80 -109,0 -194,23 -256,70 -63,46 -94,110 -94,190 0,57 18,109 56,158 37,49 92,94 167,134l379 209c318,176 531,339 641,487 110,149 164,325 164,529 0,316 -107,571 -322,765 -215,194 -500,291 -856,291 -120,0 -251,-13 -393,-38 -141,-25 -297,-65 -466,-118l-65 -863z"/>
   <polygon class="fil4" points="17531,6770 17531,3535 19523,3535 19523,4202 18280,4202 18280,4787 19345,4787 19345,5449 18280,5449 18280,6089 19542,6089 19542,6770 "/>
   <path class="fil4" d="M21007 4124l-127 0 0 896 163 0c195,0 343,-40 446,-118 103,-79 154,-192 154,-339 0,-155 -50,-266 -149,-335 -100,-70 -262,-104 -487,-104zm-877 2646l0 -3235 832 0c266,0 473,17 620,52 147,35 276,93 390,175 120,86 214,193 280,320 66,127 99,261 99,402 0,204 -52,383 -155,536 -104,153 -253,272 -448,359l987 1391 -882 0 -864 -1270 -109 0 0 1270 -750 0z"/>
   <polygon class="fil4" points="23588,6770 23588,5235 22432,3535 23364,3535 24040,4559 24785,3535 25603,3535 24356,5203 24356,6770 "/>
  </g>
 </g>
</svg>
